<?xml version="1.0" encoding="UTF-8"?>
<svg id="Layer_2" data-name="Layer 2" xmlns="http://www.w3.org/2000/svg" viewBox="0 0 161.37 164.6">
  <defs>
    <style>
      .cls-1 {
        fill: #EB6225;
        isolation: isolate;
        opacity: .97;
        stroke-width: 0px;
      }
    </style>
  </defs>
  <g id="svg5457">
    <path id="path883" class="cls-1" d="M79.01,0C40.59.82,8.07,29.16,1.27,67.76h21.57c1.26-27.11,23.17-48.44,49.78-48.45,2.13.02,4.26.18,6.38.48l.02-19.78ZM87.12.21v21.32c20.98,6.53,35.32,26.3,35.31,48.69-.01,6.92-1.4,13.76-4.09,20.11l42.61.03c.27-2.67.41-5.36.43-8.05.02-42.94-32.3-78.69-74.24-82.12h0ZM0,82.43c.04,19.42,6.8,38.2,19.09,53.02l122.98.1c7.81-9.4,13.46-20.48,16.52-32.4l-48.02-.05c-9.48,11.4-23.39,17.96-38.04,17.95-22.87-.04-42.78-15.96-48.29-38.61H0ZM35.78,150.6c13.26,9.09,28.86,13.96,44.83,14,15.99,0,31.61-4.85,44.9-13.92l-89.73-.08Z"/>
  </g>
</svg>