<svg version="1.1" id="Layer_1" xmlns="http://www.w3.org/2000/svg" xmlns:xlink="http://www.w3.org/1999/xlink" x="0px" y="0px"
	 width="100%" viewBox="0 0 3356 503" xml:space="preserve">
<path fill="#EB6225" opacity="1.000000" stroke="none" 
	d="
M3357.000000,423.571533 
	C3352.023438,432.542603 3347.516113,441.403107 3341.983154,449.568604 
	C3324.763428,474.980133 3300.931885,491.667358 3271.446045,499.563599 
	C3257.057861,503.416870 3242.065186,502.727478 3227.186035,501.095154 
	C3211.701416,499.396301 3196.751465,495.997162 3182.290771,490.133820 
	C3167.546875,484.155731 3155.241455,475.197876 3145.185547,462.806427 
	C3131.559570,446.015320 3121.076660,427.534760 3115.210938,406.766785 
	C3112.483154,397.108795 3111.234375,386.958649 3110.109619,376.942444 
	C3108.915771,366.308594 3107.846436,355.544800 3108.164062,344.880646 
	C3108.908447,319.877960 3113.316162,295.443146 3125.099609,273.097656 
	C3139.104492,246.539093 3158.175049,224.403900 3186.316895,212.207840 
	C3196.756836,207.683533 3208.268799,204.947159 3219.569824,203.278732 
	C3232.247803,201.407043 3245.269043,200.785950 3258.089600,201.201477 
	C3278.591553,201.865982 3296.748535,209.324921 3312.451416,222.855911 
	C3330.995361,238.834976 3341.980225,259.087280 3347.208252,282.660431 
	C3348.652588,289.172302 3349.337402,295.885101 3349.914795,302.545227 
	C3350.296387,306.945953 3348.102783,310.153229 3343.516113,311.094971 
	C3339.867188,311.844116 3336.174316,312.911377 3332.498779,312.919220 
	C3277.685303,313.036102 3222.871582,313.000000 3168.057861,313.000000 
	C3166.248535,313.000000 3164.439209,313.000000 3161.662598,313.000000 
	C3161.437256,322.131226 3161.451660,331.003296 3160.950684,339.846191 
	C3159.952148,357.471863 3162.297607,374.590240 3167.980469,391.276031 
	C3174.497070,410.410339 3184.728760,427.319611 3200.143311,440.420319 
	C3213.757812,451.991180 3229.424561,459.297607 3247.734619,461.212799 
	C3265.377930,463.058319 3282.201416,460.646454 3297.913818,453.290436 
	C3314.985840,445.298126 3328.679443,432.825623 3338.264160,416.293579 
	C3341.289551,411.075653 3342.956543,410.649536 3348.476318,413.823730 
	C3351.011963,415.281921 3353.697266,416.480133 3356.657227,417.898132 
	C3357.000000,419.714355 3357.000000,421.428711 3357.000000,423.571533 
M3184.500488,291.000000 
	C3187.831787,291.000000 3191.163086,291.000000 3194.494385,291.000000 
	C3221.311768,291.000000 3248.128906,291.004395 3274.946289,290.997772 
	C3285.098633,290.995239 3288.582275,287.818481 3287.851318,277.739777 
	C3287.409180,271.640839 3285.806885,265.565247 3284.196777,259.622528 
	C3277.959229,236.600342 3257.984131,219.185638 3229.509033,222.833160 
	C3215.244873,224.660339 3203.312744,230.732178 3192.857178,239.814850 
	C3177.526855,253.131805 3171.081787,271.444336 3165.602295,291.000000 
	C3171.959229,291.000000 3177.730469,291.000000 3184.500488,291.000000 
z"/>
<path fill="#2F2F30" opacity="1.000000" stroke="none" 
	d="
M1101.550049,0.999990 
	C1103.000000,4.156197 1104.748291,7.285656 1104.862183,10.473555 
	C1105.231201,20.791210 1105.108032,31.131672 1104.977051,41.460838 
	C1104.722168,61.547733 1104.324585,81.632790 1104.002197,101.718864 
	C1103.658447,123.137604 1103.142822,144.555679 1103.033936,165.975723 
	C1102.616821,248.046158 1102.282471,330.117126 1102.051880,412.188293 
	C1102.015137,425.274841 1102.525391,438.369537 1103.095825,451.446777 
	C1103.248047,454.936554 1104.327026,458.448578 1105.385010,461.823547 
	C1107.771484,469.435486 1114.258667,470.739807 1120.911621,470.924347 
	C1131.234497,471.210693 1141.571289,470.988007 1151.902100,471.005280 
	C1156.659912,471.013245 1158.974854,473.010681 1158.936401,477.712250 
	C1158.895020,482.787262 1158.559570,487.884827 1157.889526,492.910889 
	C1157.735107,494.069183 1155.667603,495.894104 1154.527100,495.859833 
	C1139.509521,495.408325 1124.503052,494.600220 1109.487549,494.055634 
	C1103.163940,493.826294 1096.825439,494.002167 1090.493774,494.000824 
	C1077.496948,493.998077 1064.493896,493.746887 1051.504883,494.063263 
	C1034.821045,494.469666 1018.142944,495.227448 1001.473999,496.066071 
	C996.618347,496.310364 994.956238,494.117676 994.993042,489.731354 
	C995.026550,485.732605 994.969238,481.733032 995.007629,477.734375 
	C995.057922,472.494659 996.472107,471.030823 1001.658630,471.011963 
	C1012.489136,470.972565 1023.320312,470.942657 1034.150513,471.016968 
	C1043.954590,471.084259 1051.117188,464.851624 1051.129517,454.149536 
	C1051.245605,352.583954 1051.703369,251.018784 1051.950806,149.453232 
	C1051.979858,137.532898 1051.794678,125.574829 1050.866211,113.700134 
	C1049.987549,102.463928 1049.350830,91.081970 1042.150513,81.283859 
	C1036.938843,74.191940 1029.537354,70.648109 1022.101562,67.152153 
	C1016.598083,64.564682 1010.631775,62.932472 1004.814148,61.052830 
	C1001.107605,59.855247 998.243103,58.652107 997.824219,53.777386 
	C997.363037,48.409512 1000.684387,46.951725 1004.304443,45.303051 
	C1023.685974,36.476295 1043.220093,27.968632 1062.409424,18.742998 
	C1071.115967,14.557129 1079.129028,8.936150 1087.502441,4.044261 
	C1089.150879,3.081219 1091.008545,2.476079 1092.884766,1.352932 
	C1095.700073,1.000000 1098.400024,1.000000 1101.550049,0.999990 
z"/>
<path fill="#EB6225" opacity="1.000000" stroke="none" 
	d="
M1899.460693,504.000000 
	C1897.063354,500.846985 1894.661865,497.885773 1893.268677,494.508606 
	C1886.392700,477.840393 1879.622437,461.124298 1873.120117,444.307129 
	C1864.512085,422.044250 1856.141235,399.689087 1847.755127,377.340973 
	C1840.453491,357.882782 1833.392700,338.333710 1826.007202,318.907684 
	C1817.120728,295.533295 1808.267334,272.139618 1798.876465,248.966309 
	C1794.050171,237.056732 1785.163696,230.404358 1771.513306,231.959961 
	C1769.046021,232.241135 1766.519287,232.017883 1764.020142,231.996094 
	C1759.304199,231.954956 1757.176147,229.938904 1757.023804,225.145340 
	C1756.907593,221.483475 1757.068359,217.813431 1756.985229,214.149765 
	C1756.831909,207.390381 1759.382690,206.268448 1764.403564,206.181702 
	C1771.432739,206.060257 1778.482544,207.182053 1785.525024,207.754532 
	C1787.007812,207.875061 1788.496826,207.988708 1789.982910,207.989716 
	C1811.976196,208.004639 1833.971802,208.186752 1855.961670,207.908600 
	C1864.829468,207.796448 1873.675537,206.464279 1882.548340,206.066055 
	C1889.269897,205.764374 1890.995728,207.737015 1890.999634,214.417999 
	C1891.001709,218.083542 1890.898315,221.752640 1891.025635,225.413742 
	C1891.183350,229.949142 1889.186401,232.129318 1884.591797,232.019592 
	C1880.595337,231.924133 1876.594727,231.990173 1872.595947,232.002121 
	C1865.065552,232.024597 1860.252441,236.063629 1861.183350,243.320374 
	C1862.628906,254.589355 1864.574707,265.897461 1867.580688,276.839508 
	C1872.436768,294.516479 1877.904419,312.055450 1883.893921,329.383087 
	C1890.415894,348.251343 1897.749634,366.841827 1904.877686,385.496826 
	C1909.804810,398.391632 1914.944336,411.206085 1920.087280,424.016998 
	C1920.957397,426.184326 1922.325684,428.151611 1924.072266,431.312195 
	C1934.052368,406.487427 1943.680298,382.955292 1952.978027,359.293396 
	C1962.243286,335.714233 1971.326172,312.060516 1980.188110,288.327118 
	C1984.102783,277.842865 1987.729858,267.201233 1990.577026,256.391235 
	C1991.849365,251.560532 1991.309570,246.096146 1990.804321,240.997421 
	C1990.296631,235.876038 1985.435547,232.169220 1980.067261,232.025177 
	C1975.571777,231.904556 1971.057251,231.784470 1966.576050,232.063690 
	C1962.540161,232.315125 1961.189331,230.046402 1961.058960,226.764130 
	C1960.854004,221.607193 1960.901611,216.433395 1961.039795,211.272018 
	C1961.134155,207.746902 1963.175903,205.790939 1966.719116,206.037781 
	C1974.091064,206.551331 1981.447876,207.280899 1988.813232,207.891708 
	C1990.137451,208.001541 1991.473511,207.995041 1992.804077,207.995743 
	C2006.133301,208.002731 2019.469116,208.258224 2032.789917,207.922348 
	C2044.492554,207.627289 2056.172852,206.530151 2067.873779,206.051178 
	C2074.894043,205.763779 2075.985840,207.034927 2075.998535,213.862640 
	C2076.006104,217.861404 2075.996094,221.860199 2076.000732,225.858978 
	C2076.005371,229.977615 2074.540283,232.269836 2069.832520,232.081879 
	C2063.693115,231.836761 2057.421875,231.483582 2051.402588,232.425400 
	C2041.386353,233.992615 2035.099121,240.929871 2030.821899,249.623917 
	C2019.020142,273.612488 2006.841064,297.437500 1995.837891,321.791077 
	C1982.520386,351.267853 1970.402710,381.284454 1957.481201,410.943451 
	C1949.614746,429.000061 1941.363159,446.894043 1932.995239,464.725250 
	C1927.623047,476.172729 1921.815308,487.420471 1915.972778,498.637878 
	C1914.992554,500.519623 1912.839722,501.790466 1911.114502,503.671814 
	C1907.307129,504.000000 1903.614136,504.000000 1899.460693,504.000000 
z"/>
<path fill="#2F2F30" opacity="1.000000" stroke="none" 
	d="
M1.000000,338.333313 
	C1.991835,335.255920 3.456316,332.585693 3.898539,329.755737 
	C6.699234,311.832947 12.967991,295.111420 21.418749,279.202393 
	C30.604515,261.909729 42.264061,246.589951 57.433250,233.899689 
	C72.026871,221.690948 87.998802,212.177628 106.118484,206.444778 
	C124.245651,200.709564 143.022263,199.925568 161.738403,201.174316 
	C180.329422,202.414719 198.022690,207.530823 213.810715,217.979401 
	C225.489960,225.708786 235.038559,235.403198 238.950424,249.154541 
	C243.551910,265.330048 234.885544,280.012054 216.789886,280.935638 
	C201.523178,281.714844 190.422745,274.194458 182.017563,262.065125 
	C175.750732,253.021606 169.822861,243.730530 163.269165,234.902222 
	C157.477356,227.100220 148.306808,224.977081 139.507126,224.191452 
	C116.215843,222.112091 95.935143,229.554901 79.919426,246.743896 
	C66.972206,260.639587 59.462967,277.577179 54.987759,295.930695 
	C51.309357,311.016357 51.087967,326.440002 52.243404,341.666199 
	C53.604229,359.598938 58.050686,377.109406 65.928467,393.423950 
	C71.888275,405.766449 77.657707,418.371857 85.199150,429.741089 
	C97.682968,448.561249 115.353310,460.528687 138.134323,463.995667 
	C145.048355,465.047882 151.990860,466.922211 158.897903,466.825195 
	C181.095963,466.513306 202.704666,463.473541 220.757553,448.722656 
	C225.066666,445.201660 229.278397,441.561676 233.545395,437.988922 
	C236.471527,435.538910 239.220169,435.014160 241.987869,438.391510 
	C243.668259,440.442078 245.606110,442.322144 247.629288,444.042419 
	C251.265472,447.134155 250.665436,450.437347 247.955597,453.447815 
	C233.409790,469.607544 215.838135,481.731812 195.797440,489.779510 
	C184.045639,494.498657 171.708298,498.726807 159.255615,500.469543 
	C146.008850,502.323395 132.310211,501.224365 118.817329,500.968170 
	C104.528961,500.696899 90.783142,497.145752 78.091454,490.851837 
	C67.881462,485.788574 57.689674,480.089874 48.861931,472.971527 
	C33.798908,460.825256 23.145864,444.725983 14.412981,427.620148 
	C8.074265,415.203979 4.240437,401.804382 2.952538,387.793701 
	C2.871825,386.915619 2.172477,386.094421 1.380470,385.123383 
	C1.000000,384.555542 1.000000,384.111115 1.349175,383.222473 
	C1.465568,381.518829 1.232785,380.259430 1.000001,379.000000 
	C1.000000,367.979095 1.000000,356.958221 1.361436,345.345581 
	C1.481915,343.169220 1.240958,341.584595 1.000000,340.000000 
	C1.000000,339.555542 1.000000,339.111115 1.000000,338.333313 
z"/>
<path fill="#EB6225" opacity="1.000000" stroke="none" 
	d="
M2427.341309,292.709351 
	C2426.857666,280.150330 2420.037354,271.721954 2410.815430,265.083923 
	C2405.692871,261.396637 2399.853760,258.678558 2394.238525,255.711288 
	C2390.739990,253.862411 2388.668701,251.640945 2388.876465,247.243103 
	C2389.069092,243.164368 2390.436035,240.880280 2394.166992,238.844299 
	C2413.622314,228.227783 2432.845947,217.187332 2452.213867,206.408844 
	C2455.754639,204.438431 2459.498779,202.741409 2463.314209,201.381027 
	C2467.579102,199.860321 2471.191406,201.877457 2471.901855,206.122467 
	C2472.819092,211.602753 2473.344727,217.149811 2473.994141,222.673386 
	C2475.019287,231.388153 2476.006592,240.107315 2477.155518,250.089951 
	C2480.691895,246.654938 2483.448242,244.137115 2486.025879,241.447845 
	C2502.954590,223.786118 2523.497314,212.118317 2546.642090,204.723633 
	C2560.067627,200.434235 2573.682861,200.419174 2587.594238,201.862366 
	C2602.815674,203.441467 2617.077637,207.391632 2629.751221,216.013641 
	C2640.938721,223.624527 2649.136475,234.177750 2655.253174,245.993607 
	C2659.849365,254.872025 2662.868896,264.575867 2666.424072,273.975098 
	C2667.040283,275.604797 2666.977783,277.547394 2666.978516,279.345612 
	C2667.004639,337.672302 2666.991211,395.998993 2667.006836,454.325684 
	C2667.010254,466.931122 2671.150146,470.191284 2683.642822,470.922089 
	C2690.950195,471.349579 2698.304443,471.078644 2705.635254,470.967896 
	C2709.414062,470.910797 2711.111816,472.507935 2711.026123,476.306122 
	C2710.917480,481.136475 2710.937012,485.972198 2711.020752,490.803528 
	C2711.081299,494.285706 2709.641113,496.181488 2706.026855,495.992279 
	C2693.829102,495.353516 2681.632568,494.682770 2669.435547,494.032166 
	C2668.604492,493.987823 2667.769531,493.990967 2666.936768,494.002777 
	C2643.673828,494.333038 2620.409668,494.618073 2597.148193,495.034821 
	C2591.212646,495.141113 2585.283691,495.658539 2579.352783,496.002533 
	C2575.573975,496.221710 2573.881348,494.473755 2573.974121,490.682220 
	C2574.084229,486.185425 2574.233398,481.668427 2573.936279,477.188599 
	C2573.625000,472.496063 2575.989258,470.995789 2580.122803,470.999146 
	C2586.455322,471.004272 2592.792236,471.145630 2599.119873,470.969788 
	C2612.507324,470.597839 2615.669678,465.326965 2615.816162,454.588593 
	C2616.550537,400.667877 2616.806152,346.738892 2616.849365,292.812469 
	C2616.855957,284.709686 2615.699219,276.375458 2613.580078,268.554840 
	C2610.291260,256.416565 2600.627197,249.215347 2590.469727,242.885666 
	C2582.483398,237.908936 2573.663818,235.948715 2564.283936,235.943253 
	C2559.852051,235.940674 2555.384766,234.793777 2550.995117,235.087097 
	C2521.341553,237.068542 2497.667969,249.445541 2484.102539,276.726715 
	C2480.252441,284.469269 2478.352539,293.952423 2478.260986,302.665710 
	C2477.728516,353.487701 2477.994873,404.318085 2478.003662,455.145630 
	C2478.005615,466.194824 2482.354004,470.727905 2493.337646,470.975464 
	C2499.333984,471.110626 2505.336182,471.042267 2511.334717,470.986206 
	C2515.825684,470.944244 2518.059570,473.034973 2518.009033,477.568604 
	C2517.966064,481.401031 2518.028564,485.234589 2517.993164,489.067139 
	C2517.937988,495.045990 2516.986572,496.116882 2511.126221,495.976990 
	C2485.429932,495.363647 2459.738281,494.340057 2434.039551,494.135406 
	C2420.849121,494.030365 2407.643799,495.265839 2394.453369,496.036377 
	C2389.810303,496.307648 2387.654053,494.655334 2387.943359,489.778320 
	C2388.209473,485.294617 2388.083252,480.780670 2387.975098,476.283813 
	C2387.883057,472.469879 2389.613525,470.895233 2393.387451,470.967285 
	C2399.717529,471.088165 2406.055908,471.131134 2412.382812,470.943787 
	C2415.470703,470.852356 2418.664795,470.568359 2421.592285,469.664581 
	C2426.963379,468.006561 2427.096436,462.928894 2427.964600,458.495667 
	C2428.184814,457.372101 2428.000000,456.169037 2428.000000,455.002502 
	C2428.000244,403.008423 2428.004639,351.014374 2427.982422,299.020294 
	C2427.981689,297.044952 2427.720947,295.069702 2427.341309,292.709351 
z"/>
<path fill="#EB6225" opacity="1.000000" stroke="none" 
	d="
M2966.000000,367.000000 
	C2966.000000,330.503265 2966.028564,294.506439 2965.951416,258.509857 
	C2965.944580,255.259964 2965.463623,251.971466 2964.846191,248.769653 
	C2962.726807,237.776489 2953.991699,234.865814 2944.760986,233.091370 
	C2938.836914,231.952515 2932.760254,231.509216 2926.729004,231.062454 
	C2923.038330,230.789078 2921.867676,228.942230 2921.976562,225.565628 
	C2922.083984,222.236069 2921.999023,218.900314 2922.000488,215.567291 
	C2922.003174,208.940292 2922.849365,208.030533 2929.779541,208.016281 
	C2951.277588,207.972031 2972.776855,208.127777 2994.272705,207.912201 
	C2999.804199,207.856720 3005.356934,206.918747 3010.841553,206.026321 
	C3016.596436,205.089890 3020.275879,207.772827 3019.945557,213.693207 
	C3019.110596,228.663010 3017.308350,243.608978 3017.124756,258.579590 
	C3016.471924,311.836487 3016.119629,365.099976 3016.188721,418.360260 
	C3016.201660,428.395172 3018.415771,438.468719 3020.081787,448.446381 
	C3021.329590,455.918915 3029.128906,459.102417 3034.231934,458.885376 
	C3042.420166,458.537140 3050.605957,457.666779 3058.734863,456.583862 
	C3062.675293,456.058990 3065.085693,457.173798 3065.970215,460.930328 
	C3068.874023,473.265564 3070.887451,473.839935 3056.621094,478.271820 
	C3033.499268,485.454956 3010.664062,493.557587 2987.615479,500.985016 
	C2984.132080,502.107483 2980.120361,502.049957 2976.413574,501.761658 
	C2975.176514,501.665405 2973.406006,499.279480 2973.113037,497.710083 
	C2971.528564,489.216919 2970.293213,480.657166 2969.014404,472.108948 
	C2968.193848,466.625885 2967.505371,461.123047 2966.628174,454.677490 
	C2964.308838,457.446930 2962.494629,459.867401 2960.424561,462.045044 
	C2946.311768,476.891113 2929.512939,487.609344 2910.451904,495.069489 
	C2895.303223,500.998383 2879.666504,503.006287 2863.598389,501.955200 
	C2839.981689,500.410309 2821.641602,489.454163 2808.015625,470.220734 
	C2800.085938,459.027802 2792.048828,447.751404 2788.868896,434.253815 
	C2786.110596,422.546722 2783.483154,410.503754 2783.248047,398.560974 
	C2782.312012,350.978149 2782.659912,303.370544 2781.787598,255.785767 
	C2781.547852,242.706268 2776.896240,236.059433 2762.108887,233.058807 
	C2756.836426,231.988876 2751.412354,231.672989 2746.060059,230.989532 
	C2742.712646,230.562057 2740.552979,229.204819 2740.946045,225.249191 
	C2741.224609,222.443802 2740.994141,219.588394 2741.000977,216.755325 
	C2741.018066,209.857681 2742.773438,208.030502 2749.798340,208.015640 
	C2770.463135,207.971939 2791.128418,208.078171 2811.792236,207.933228 
	C2815.859619,207.904694 2819.991699,207.333847 2823.970703,206.455933 
	C2831.785400,204.731812 2835.581299,208.001083 2835.040039,215.916946 
	C2834.195557,228.265701 2833.264893,240.629745 2833.075439,252.998093 
	C2832.528320,288.757233 2832.382812,324.522308 2831.966064,360.283722 
	C2831.857910,369.551147 2830.586670,378.859711 2831.154053,388.069000 
	C2832.362793,407.684235 2834.971680,426.953217 2846.851318,443.802460 
	C2857.390381,458.750183 2870.688965,467.092102 2889.354736,469.385864 
	C2910.535400,471.988647 2926.837646,463.235840 2942.596436,451.731262 
	C2950.563721,445.914642 2958.334961,439.422729 2962.311035,430.019135 
	C2964.294189,425.329468 2965.695068,420.046936 2965.836914,414.989807 
	C2966.280518,399.170807 2966.000000,383.331451 2966.000000,367.000000 
z"/>
<path fill="#EB6225" opacity="1.000000" stroke="none" 
	d="
M1646.245728,461.254028 
	C1624.691650,483.236145 1598.297485,496.107086 1568.963745,501.353821 
	C1556.006348,503.671417 1541.691406,504.556671 1528.302002,499.173706 
	C1516.835571,494.563812 1510.347412,485.447571 1506.187500,474.830933 
	C1497.766235,453.339020 1499.433960,431.853027 1509.054810,411.077881 
	C1516.193604,395.662842 1528.193604,384.401306 1542.714355,376.233185 
	C1555.881104,368.826660 1569.800537,362.765381 1583.332764,356.000000 
	C1602.552734,346.390900 1621.769165,336.771027 1640.839722,326.871765 
	C1642.747559,325.881500 1644.719238,322.984406 1644.824097,320.880737 
	C1645.500732,307.300934 1646.135864,293.685120 1645.830078,280.102570 
	C1645.635864,271.479126 1644.343628,262.776459 1642.555298,254.318314 
	C1640.125854,242.828308 1632.201660,235.237534 1621.582764,231.420654 
	C1599.200195,223.375458 1577.361694,225.936340 1557.123535,238.133224 
	C1544.945190,245.472717 1546.640015,249.464661 1548.200195,260.740295 
	C1550.226318,275.383118 1550.572021,290.196686 1540.041992,302.341675 
	C1537.257690,305.552948 1532.947632,308.326385 1528.858398,309.314087 
	C1522.689331,310.804077 1516.066162,311.203033 1509.694458,310.887207 
	C1498.945435,310.354370 1496.926514,302.769196 1496.078491,295.325012 
	C1494.109863,278.045258 1500.890137,263.595612 1511.743652,250.806702 
	C1533.123535,225.613968 1561.386475,212.093933 1592.667480,204.079147 
	C1607.850586,200.188934 1623.489136,200.491959 1638.991699,201.114227 
	C1655.033691,201.758163 1669.188354,208.121307 1680.984619,218.753510 
	C1689.141846,226.105743 1694.810791,235.607208 1694.915527,247.003693 
	C1695.434326,303.425812 1695.476807,359.852875 1696.171509,416.272217 
	C1696.299438,426.656219 1697.639282,437.276123 1700.228638,447.320770 
	C1704.213379,462.778046 1714.453613,466.983643 1729.168701,460.201294 
	C1733.084351,458.396515 1736.599731,455.448090 1739.831543,452.510406 
	C1743.228271,449.422943 1745.717773,449.435394 1749.726074,451.949921 
	C1757.085938,456.566895 1757.651978,461.092926 1753.580078,468.963409 
	C1745.631226,484.327515 1734.319824,496.139282 1717.156982,500.234161 
	C1689.355347,506.867279 1666.173218,498.565063 1654.915771,468.642120 
	C1653.502686,464.885773 1652.130249,461.114044 1650.198242,455.886566 
	C1648.643555,458.034729 1647.569458,459.518982 1646.245728,461.254028 
M1580.984375,382.521515 
	C1572.528564,388.556976 1565.985107,396.449829 1561.363037,405.529205 
	C1556.039185,415.987305 1554.654053,427.216400 1555.767212,439.216125 
	C1557.753540,460.628632 1577.311157,472.747070 1597.409302,468.204102 
	C1609.427612,465.487549 1619.804321,459.287903 1629.309326,451.940552 
	C1640.616211,443.200439 1646.996216,432.110168 1646.266357,416.665955 
	C1645.221558,394.560852 1646.000000,372.369568 1646.000000,350.215088 
	C1646.000000,348.657196 1646.000000,347.099274 1646.000000,345.605377 
	C1637.408936,349.902191 1629.306030,354.016388 1621.149170,358.020660 
	C1607.224976,364.856140 1593.329224,371.725647 1580.984375,382.521515 
z"/>
<path fill="#EB6225" opacity="1.000000" stroke="none" 
	d="
M2141.000000,330.039185 
	C2141.000000,337.697815 2140.965820,344.862976 2141.007080,352.027740 
	C2141.099365,368.077179 2144.646484,383.414429 2150.663818,398.226074 
	C2156.847900,413.447968 2165.507812,427.081360 2177.728760,438.126740 
	C2191.844727,450.885132 2208.062256,458.988525 2227.400879,461.184692 
	C2244.864502,463.167908 2261.455566,460.513336 2277.178467,453.645142 
	C2285.252930,450.118011 2292.583252,444.428040 2299.474365,438.771179 
	C2307.495605,432.186554 2314.315674,424.310028 2319.141113,414.889526 
	C2319.818848,413.566742 2322.288086,411.841675 2323.215820,412.191406 
	C2327.629395,413.855255 2331.986816,415.883118 2335.917236,418.462280 
	C2336.889893,419.100525 2336.884766,422.581848 2336.162354,424.251099 
	C2320.362305,460.749176 2293.989990,486.125366 2255.956299,498.364410 
	C2240.247314,503.419525 2223.836670,502.755096 2207.477783,501.117432 
	C2193.599365,499.728058 2180.211914,496.631989 2167.064697,492.090912 
	C2147.844971,485.452240 2132.619141,473.607391 2120.768311,457.248169 
	C2108.348389,440.103424 2098.349365,421.656219 2093.645752,400.927704 
	C2091.124512,389.815887 2090.335938,378.293427 2089.061523,366.923126 
	C2088.382324,360.864807 2087.841797,354.715271 2088.095703,348.642761 
	C2088.759766,332.766724 2090.055176,316.928345 2094.227051,301.493530 
	C2102.109131,272.332764 2117.755859,247.947769 2140.429688,228.218918 
	C2156.034180,214.641205 2174.441650,207.007309 2194.985840,203.838715 
	C2209.088135,201.663651 2223.168701,200.444977 2237.363037,201.064774 
	C2258.225586,201.975693 2276.589355,209.151199 2292.593750,222.935867 
	C2313.003174,240.514587 2323.563965,263.247223 2328.854004,288.941772 
	C2329.775635,293.418518 2329.839844,298.107605 2329.943848,302.706696 
	C2330.043945,307.128967 2327.972656,310.284363 2323.371826,311.172058 
	C2319.709717,311.878632 2316.011963,312.914856 2312.328369,312.922424 
	C2257.508301,313.034760 2202.687744,313.000000 2147.867432,313.000000 
	C2146.071045,313.000000 2144.274902,313.000000 2142.131592,313.000000 
	C2141.736572,318.776367 2141.368408,324.160950 2141.000000,330.039185 
M2201.068359,224.437286 
	C2189.942871,227.343155 2180.357666,233.074631 2171.868652,240.669998 
	C2162.735107,248.842194 2157.216064,259.527588 2152.358643,270.468719 
	C2149.521484,276.859283 2147.794434,283.742523 2145.368652,291.000000 
	C2158.158691,291.000000 2169.808594,291.000000 2181.458496,291.000000 
	C2205.958008,291.000000 2230.457520,291.004761 2254.957031,290.997681 
	C2265.065186,290.994751 2268.526611,287.848999 2267.907227,277.855286 
	C2267.087402,264.624969 2263.501709,251.900803 2255.451172,241.327835 
	C2248.983398,232.833191 2240.673828,226.283310 2229.479492,223.809784 
	C2220.080566,221.733017 2211.028320,222.147675 2201.068359,224.437286 
z"/>
<path fill="#2F2F30" opacity="1.000000" stroke="none" 
	d="
M1196.968750,389.188721 
	C1196.297241,385.569000 1195.192749,382.411774 1195.083374,379.220428 
	C1194.572388,364.307495 1193.323608,349.322632 1194.240723,334.481018 
	C1195.585449,312.718842 1200.736816,291.593079 1211.041504,272.149780 
	C1224.638794,246.493713 1243.414795,225.677444 1269.837646,212.739487 
	C1281.229858,207.161270 1293.616577,204.333206 1306.207031,203.093445 
	C1317.502686,201.981186 1328.875854,201.139511 1340.216797,201.115219 
	C1360.669189,201.071411 1378.985352,207.496826 1395.052246,220.468582 
	C1417.139648,238.301041 1429.376343,261.586456 1433.934937,289.212708 
	C1434.760010,294.212708 1434.907349,299.363708 1434.912842,304.445526 
	C1434.916382,307.678223 1433.629395,310.491943 1429.743896,311.079163 
	C1426.079712,311.632935 1422.441895,312.908661 1418.790527,312.916656 
	C1363.808105,313.036896 1308.825317,313.000000 1253.842651,313.000000 
	C1252.031860,313.000000 1250.220947,313.000000 1247.977661,313.000000 
	C1247.297363,318.729980 1246.266968,324.180542 1246.070801,329.660889 
	C1245.458008,346.792938 1245.569214,363.986786 1250.133789,380.627777 
	C1255.088013,398.688507 1262.708740,415.496368 1275.253052,429.893829 
	C1287.110107,443.502563 1301.313721,453.100708 1318.596680,458.224548 
	C1332.139038,462.239410 1345.671265,462.598846 1359.691284,460.292725 
	C1374.653076,457.831665 1387.812622,452.275970 1399.762329,443.094269 
	C1409.866821,435.330505 1418.409912,426.313477 1424.368896,415.036926 
	C1425.673218,412.568451 1427.138062,411.740997 1429.762207,411.971008 
	C1436.979004,412.603607 1443.687378,418.976532 1441.813843,424.097198 
	C1440.046021,428.929077 1437.577393,433.566315 1434.940674,438.006317 
	C1428.266724,449.244263 1421.196899,460.288727 1411.349609,469.065460 
	C1393.025269,485.397552 1372.713257,497.894714 1347.683960,501.030396 
	C1324.726562,503.906494 1302.414185,500.968933 1280.261841,494.770325 
	C1260.454956,489.227997 1243.944458,478.683411 1230.861328,463.109741 
	C1224.762085,455.849457 1219.943481,447.474548 1214.868164,439.401367 
	C1205.919312,425.166229 1200.647095,409.455780 1197.074097,393.127350 
	C1196.829834,392.011017 1197.010986,390.801636 1196.968750,389.188721 
M1328.500000,291.000000 
	C1339.484131,290.999969 1350.468628,291.058136 1361.452271,290.980469 
	C1369.386597,290.924347 1375.045288,285.556213 1373.970093,279.274414 
	C1373.342529,275.607513 1372.676514,271.946930 1371.995483,268.289520 
	C1369.794189,256.470093 1365.498901,245.439651 1357.083008,236.766815 
	C1345.768799,225.107101 1331.875000,220.640533 1315.463135,222.852875 
	C1298.091553,225.194611 1284.067749,232.905746 1272.558594,245.894058 
	C1261.090576,258.836090 1255.654297,274.495178 1251.239868,291.000000 
	C1276.915161,291.000000 1302.207520,291.000000 1328.500000,291.000000 
z"/>
<path fill="#2F2F30" opacity="1.000000" stroke="none" 
	d="
M765.809937,234.697815 
	C774.479126,228.683655 782.704285,222.613678 791.369141,217.254929 
	C803.734497,209.607727 817.352783,204.788895 831.749695,203.152756 
	C844.171204,201.741104 856.797546,200.598907 869.239929,201.217316 
	C896.991821,202.596573 922.131592,211.219513 940.557373,233.314270 
	C947.829468,242.034332 952.568604,252.370819 948.987305,264.439362 
	C945.363464,276.651428 936.750305,280.255524 926.376465,280.865021 
	C913.070496,281.646851 902.319214,276.088379 894.649048,265.126373 
	C888.989441,257.037781 883.623230,248.743591 878.141968,240.530563 
	C872.310425,231.792511 864.205566,226.643890 853.836426,224.997574 
	C828.090027,220.909836 806.376709,228.864990 788.901917,247.774261 
	C776.345581,261.361237 769.478088,278.082336 764.959778,295.880157 
	C761.041321,311.315552 761.162720,327.080566 762.270081,342.626770 
	C763.536072,360.400116 768.256470,377.699921 776.070496,393.845673 
	C781.960083,406.015076 787.781067,418.364929 795.162842,429.631927 
	C807.577271,448.580231 825.307373,460.398895 848.023315,463.988739 
	C854.932312,465.080536 861.879089,466.905701 868.790894,466.827576 
	C891.008240,466.576508 912.612427,463.494568 930.684631,448.780304 
	C935.255798,445.058502 939.499451,440.910950 944.249084,437.446350 
	C945.664734,436.413635 948.898804,436.156189 950.237244,437.081116 
	C953.336182,439.222534 955.960815,442.152893 958.450317,445.045166 
	C961.008057,448.016876 960.281006,451.077271 957.721497,453.794464 
	C943.215271,469.194183 926.558044,481.618225 906.617432,488.968781 
	C894.402466,493.471497 882.036438,498.484650 869.305725,500.414093 
	C856.099304,502.415649 842.322021,501.702057 828.886963,500.798950 
	C818.787231,500.119965 808.558105,498.167145 798.867432,495.206970 
	C770.722290,486.609589 749.894958,468.446655 733.912109,444.020508 
	C722.732788,426.935486 714.896118,408.722839 713.076599,388.330048 
	C711.890625,375.036438 710.356812,361.568176 711.263672,348.334717 
	C713.393494,317.254211 723.399353,288.416107 741.231445,262.811920 
	C748.234497,252.756699 757.388123,244.199203 765.809937,234.697815 
z"/>
<path fill="#2F2F30" opacity="1.000000" stroke="none" 
	d="
M621.696716,252.000107 
	C600.903137,250.982208 587.020752,260.765106 576.936401,277.700775 
	C571.236877,287.272675 568.922302,297.346802 568.949829,308.341675 
	C569.067566,355.330658 568.888550,402.320801 569.163757,449.308502 
	C569.192871,454.283295 570.644775,459.685333 572.944153,464.104858 
	C576.057068,470.088196 582.719910,470.725586 588.755676,470.914825 
	C598.743591,471.227997 608.751648,471.144470 618.744324,470.918793 
	C622.072205,470.843597 624.430603,471.495605 624.553955,475.091125 
	C624.746399,480.697357 624.730652,486.319855 624.542786,491.926727 
	C624.420776,495.567657 622.027100,496.243134 618.719543,496.055145 
	C604.715210,495.259277 590.699402,494.665466 576.687256,494.008514 
	C575.689697,493.961731 574.687866,493.989319 573.688232,494.001678 
	C546.936890,494.332947 520.184814,494.619659 493.434723,495.035004 
	C487.175049,495.132202 480.913544,495.555145 474.669159,496.038757 
	C470.413788,496.368317 469.122040,493.969055 469.029419,490.425659 
	C468.911926,485.929749 469.022278,481.428284 468.993652,476.929504 
	C468.967987,472.896576 470.940826,470.976532 474.963989,470.990601 
	C483.795227,471.021423 492.628448,471.103058 501.456909,470.943878 
	C504.530304,470.888489 507.672638,470.489868 510.639709,469.704712 
	C514.836060,468.594177 517.960571,463.371002 517.996216,458.134064 
	C518.335876,408.221405 518.813599,358.308746 518.856750,308.395782 
	C518.864014,299.980713 517.877014,291.331116 515.756897,283.205444 
	C512.947693,272.439209 504.208618,266.294281 494.777222,261.365814 
	C489.783386,258.756256 484.430206,256.747070 479.726532,253.711746 
	C477.816986,252.479492 476.742432,249.357635 476.106384,246.885071 
	C475.116058,243.035141 477.097443,240.489716 480.656189,238.696289 
	C494.819916,231.558441 508.869720,224.194992 523.013306,217.016739 
	C533.093750,211.900681 543.064880,206.498306 553.444458,202.065811 
	C561.440674,198.651077 563.630066,200.863937 564.078918,209.336426 
	C564.914246,225.103622 566.220642,240.845856 567.430908,258.016022 
	C569.194397,256.258362 570.440796,255.194550 571.476990,253.954987 
	C579.654663,244.172470 587.087585,233.642883 596.115479,224.726044 
	C608.183533,212.806503 622.332825,203.447617 639.189087,199.452469 
	C650.358398,196.805206 661.568481,196.992722 672.049744,202.571167 
	C679.582642,206.580414 688.601990,219.816132 686.347351,232.862808 
	C684.596191,242.995743 680.756775,250.733994 672.666870,257.015991 
	C665.141113,262.859894 656.968933,263.311096 648.600830,260.962891 
	C640.435669,258.671631 632.606079,255.189514 624.611206,252.279373 
	C623.859924,252.005905 622.980286,252.084885 621.696716,252.000107 
z"/>
<path fill="#2F2F30" opacity="1.000000" stroke="none" 
	d="
M405.810608,495.000000 
	C381.906708,494.666656 358.483093,494.007507 335.062897,494.113495 
	C319.213287,494.185181 303.371155,495.407898 287.520294,495.961945 
	C281.499573,496.172394 281.015442,495.497650 281.001709,489.395721 
	C280.992706,485.396088 281.199310,481.383820 280.948059,477.399994 
	C280.653473,472.728790 282.392303,470.811981 287.230957,470.925751 
	C297.557709,471.168549 307.899841,470.784912 318.225098,471.057556 
	C329.635132,471.358826 331.695831,465.699524 331.881012,457.449921 
	C332.522644,428.868439 332.781982,400.276581 332.965576,371.687256 
	C333.129303,346.190430 333.232208,320.688171 332.843597,295.196228 
	C332.741058,288.471680 331.515839,281.514496 329.409149,275.124786 
	C325.601929,263.577423 315.386627,259.730164 304.711548,257.045074 
	C301.421448,256.217529 298.085205,255.354523 294.724060,255.087830 
	C291.096710,254.800018 288.565613,253.196182 288.135773,249.779358 
	C287.633484,245.786346 286.977295,241.220184 291.893646,239.053299 
	C296.748108,236.913651 301.809021,235.233505 306.623627,233.013916 
	C327.717468,223.289307 348.716797,213.358780 369.852264,203.726318 
	C373.145905,202.225281 376.935059,201.569885 380.563934,201.200897 
	C381.582855,201.097275 383.603760,203.275024 383.842773,204.638168 
	C384.353027,207.548386 384.085938,210.613342 383.981018,213.609421 
	C383.697723,221.701050 383.052826,229.789520 383.043915,237.879776 
	C382.967407,307.373871 382.931152,376.868286 383.126953,446.361908 
	C383.143127,452.100952 385.099365,457.814972 385.890259,463.576843 
	C386.700134,469.476868 390.931793,470.825012 395.690552,470.930847 
	C405.851349,471.156769 416.022522,471.113403 426.185577,470.946106 
	C430.459747,470.875763 432.232788,472.535645 432.044250,476.814453 
	C431.846375,481.305359 431.838989,485.819153 432.045685,490.309265 
	C432.248322,494.711365 430.209320,496.275543 426.061432,496.019531 
	C419.475800,495.613007 412.882416,495.333313 405.810608,495.000000 
z"/>
<path fill="#2F2F30" opacity="1.000000" stroke="none" 
	d="
M315.315887,56.187851 
	C328.085449,46.370598 342.393646,46.514374 356.721924,49.173977 
	C368.611267,51.380867 375.056061,60.586189 378.832977,71.086182 
	C385.219849,88.841888 379.345825,107.230576 365.070862,118.056480 
	C355.539093,125.285217 343.684540,127.023468 332.057098,123.827194 
	C316.727753,119.613289 305.562134,110.220497 301.722534,94.153053 
	C298.658478,81.331039 302.490997,70.053963 311.185211,60.338116 
	C312.404419,58.975624 313.755981,57.731518 315.315887,56.187851 
z"/>
</svg>